<mxfile host="app.diagrams.net" agent="Mozilla/5.0 (Windows NT 10.0; Win64; x64) AppleWebKit/537.36 (KHTML, like Gecko) Chrome/129.0.0.0 Safari/537.36" version="24.7.17">
  <diagram name="Страница — 1" id="_GvUe0sxVUc-ljBJi4vi">
    <mxGraphModel dx="3160" dy="2329" grid="1" gridSize="10" guides="1" tooltips="1" connect="1" arrows="1" fold="1" page="1" pageScale="1" pageWidth="827" pageHeight="1169" math="0" shadow="0">
      <root>
        <mxCell id="0" />
        <mxCell id="1" parent="0" />
        <mxCell id="PoCXjNP7LagrxDgm13DA-1" value="&amp;lt;&amp;lt;enumeration&amp;gt;&amp;gt;&lt;div style=&quot;font-size: 14px;&quot;&gt;ParameterType&lt;/div&gt;" style="swimlane;fontStyle=0;childLayout=stackLayout;horizontal=1;startSize=40;fillColor=none;horizontalStack=0;resizeParent=1;resizeParentMax=0;resizeLast=0;collapsible=1;marginBottom=0;whiteSpace=wrap;html=1;labelBackgroundColor=none;fontSize=14;" parent="1" vertex="1">
          <mxGeometry x="600" y="240" width="180" height="230" as="geometry">
            <mxRectangle x="610" y="150" width="140" height="40" as="alternateBounds" />
          </mxGeometry>
        </mxCell>
        <mxCell id="PoCXjNP7LagrxDgm13DA-2" value="TopWidth," style="text;strokeColor=none;fillColor=none;align=left;verticalAlign=top;spacingLeft=4;spacingRight=4;overflow=hidden;rotatable=0;points=[[0,0.5],[1,0.5]];portConstraint=eastwest;whiteSpace=wrap;html=1;fontSize=14;" parent="PoCXjNP7LagrxDgm13DA-1" vertex="1">
          <mxGeometry y="40" width="180" height="26" as="geometry" />
        </mxCell>
        <mxCell id="PoCXjNP7LagrxDgm13DA-3" value="TopDepth," style="text;strokeColor=none;fillColor=none;align=left;verticalAlign=top;spacingLeft=4;spacingRight=4;overflow=hidden;rotatable=0;points=[[0,0.5],[1,0.5]];portConstraint=eastwest;whiteSpace=wrap;html=1;fontSize=14;" parent="PoCXjNP7LagrxDgm13DA-1" vertex="1">
          <mxGeometry y="66" width="180" height="26" as="geometry" />
        </mxCell>
        <mxCell id="PoCXjNP7LagrxDgm13DA-4" value="&lt;div style=&quot;font-size: 14px;&quot;&gt;&lt;span style=&quot;background-color: initial; font-size: 14px;&quot;&gt;TopHeight,&lt;/span&gt;&lt;br style=&quot;font-size: 14px;&quot;&gt;&lt;/div&gt;&lt;div style=&quot;font-size: 14px;&quot;&gt;&lt;span style=&quot;background-color: initial; font-size: 14px;&quot;&gt;&lt;br style=&quot;font-size: 14px;&quot;&gt;&lt;/span&gt;&lt;/div&gt;&lt;div style=&quot;font-size: 14px;&quot;&gt;LegWidth,&lt;div style=&quot;font-size: 14px;&quot;&gt;&lt;br style=&quot;font-size: 14px;&quot;&gt;&lt;/div&gt;&lt;div style=&quot;font-size: 14px;&quot;&gt;LegDepth,&lt;/div&gt;&lt;/div&gt;&lt;div style=&quot;font-size: 14px;&quot;&gt;&lt;br style=&quot;font-size: 14px;&quot;&gt;&lt;/div&gt;&lt;div style=&quot;font-size: 14px;&quot;&gt;TableHeight,&lt;/div&gt;" style="text;strokeColor=none;fillColor=none;align=left;verticalAlign=top;spacingLeft=4;spacingRight=4;overflow=hidden;rotatable=0;points=[[0,0.5],[1,0.5]];portConstraint=eastwest;whiteSpace=wrap;html=1;fontSize=14;" parent="PoCXjNP7LagrxDgm13DA-1" vertex="1">
          <mxGeometry y="92" width="180" height="138" as="geometry" />
        </mxCell>
        <mxCell id="PoCXjNP7LagrxDgm13DA-5" value="Parameter" style="swimlane;fontStyle=0;childLayout=stackLayout;horizontal=1;startSize=26;fillColor=none;horizontalStack=0;resizeParent=1;resizeParentMax=0;resizeLast=0;collapsible=1;marginBottom=0;whiteSpace=wrap;html=1;fontSize=14;" parent="1" vertex="1">
          <mxGeometry x="860" y="450" width="160" height="180" as="geometry">
            <mxRectangle x="590" y="450" width="110" height="30" as="alternateBounds" />
          </mxGeometry>
        </mxCell>
        <mxCell id="PoCXjNP7LagrxDgm13DA-6" value="&amp;lt;&amp;lt;property&amp;gt;&amp;gt;" style="text;strokeColor=none;fillColor=none;align=left;verticalAlign=top;spacingLeft=4;spacingRight=4;overflow=hidden;rotatable=0;points=[[0,0.5],[1,0.5]];portConstraint=eastwest;whiteSpace=wrap;html=1;fontSize=14;" parent="PoCXjNP7LagrxDgm13DA-5" vertex="1">
          <mxGeometry y="26" width="160" height="26" as="geometry" />
        </mxCell>
        <mxCell id="PoCXjNP7LagrxDgm13DA-7" value="+ MaxValue(): int" style="text;strokeColor=none;fillColor=none;align=left;verticalAlign=top;spacingLeft=4;spacingRight=4;overflow=hidden;rotatable=0;points=[[0,0.5],[1,0.5]];portConstraint=eastwest;whiteSpace=wrap;html=1;fontSize=14;" parent="PoCXjNP7LagrxDgm13DA-5" vertex="1">
          <mxGeometry y="52" width="160" height="26" as="geometry" />
        </mxCell>
        <mxCell id="PoCXjNP7LagrxDgm13DA-8" value="+ MinValue(): int&lt;div&gt;&lt;br&gt;&lt;/div&gt;&lt;div&gt;+ Value(): int&lt;/div&gt;&lt;div&gt;&lt;br&gt;&lt;/div&gt;&lt;div&gt;+ Validate(): bool&lt;/div&gt;" style="text;strokeColor=none;fillColor=none;align=left;verticalAlign=top;spacingLeft=4;spacingRight=4;overflow=hidden;rotatable=0;points=[[0,0.5],[1,0.5]];portConstraint=eastwest;whiteSpace=wrap;html=1;fontSize=14;" parent="PoCXjNP7LagrxDgm13DA-5" vertex="1">
          <mxGeometry y="78" width="160" height="102" as="geometry" />
        </mxCell>
        <mxCell id="PoCXjNP7LagrxDgm13DA-13" style="edgeStyle=orthogonalEdgeStyle;rounded=0;orthogonalLoop=1;jettySize=auto;html=1;entryX=-0.013;entryY=0.347;entryDx=0;entryDy=0;entryPerimeter=0;fontSize=14;strokeWidth=2;dashed=1;endArrow=open;endFill=0;endSize=15;" parent="1" target="PoCXjNP7LagrxDgm13DA-8" edge="1">
          <mxGeometry relative="1" as="geometry">
            <mxPoint x="430" y="553" as="sourcePoint" />
          </mxGeometry>
        </mxCell>
        <mxCell id="PoCXjNP7LagrxDgm13DA-14" value="&amp;lt;&amp;lt;use&amp;gt;&amp;gt;" style="edgeLabel;html=1;align=center;verticalAlign=middle;resizable=0;points=[];fontSize=14;" parent="PoCXjNP7LagrxDgm13DA-13" vertex="1" connectable="0">
          <mxGeometry x="-0.2715" y="-1" relative="1" as="geometry">
            <mxPoint x="22" y="10" as="offset" />
          </mxGeometry>
        </mxCell>
        <mxCell id="PoCXjNP7LagrxDgm13DA-16" style="edgeStyle=orthogonalEdgeStyle;rounded=0;orthogonalLoop=1;jettySize=auto;html=1;entryX=0;entryY=0.5;entryDx=0;entryDy=0;endArrow=open;endFill=0;strokeWidth=2;dashed=1;endSize=8;startSize=6;" parent="1" source="PoCXjNP7LagrxDgm13DA-20" target="PoCXjNP7LagrxDgm13DA-4" edge="1">
          <mxGeometry relative="1" as="geometry">
            <Array as="points">
              <mxPoint x="235" y="553" />
              <mxPoint x="470" y="553" />
              <mxPoint x="470" y="400" />
              <mxPoint x="600" y="400" />
            </Array>
            <mxPoint x="430" y="553" as="sourcePoint" />
          </mxGeometry>
        </mxCell>
        <mxCell id="PoCXjNP7LagrxDgm13DA-17" value="&amp;lt;&amp;lt;use&amp;gt;&amp;gt;" style="edgeLabel;html=1;align=center;verticalAlign=middle;resizable=0;points=[];fontSize=14;" parent="1" vertex="1" connectable="0">
          <mxGeometry x="530" y="410.0039999999999" as="geometry" />
        </mxCell>
        <mxCell id="PoCXjNP7LagrxDgm13DA-18" value="Parameters" style="swimlane;fontStyle=0;childLayout=stackLayout;horizontal=1;startSize=26;fillColor=none;horizontalStack=0;resizeParent=1;resizeParentMax=0;resizeLast=0;collapsible=1;marginBottom=0;whiteSpace=wrap;html=1;fontSize=14;" parent="1" vertex="1">
          <mxGeometry x="10" y="-10" width="450" height="140" as="geometry" />
        </mxCell>
        <mxCell id="PoCXjNP7LagrxDgm13DA-19" value="&amp;lt;&amp;lt;property&amp;gt;&amp;gt;" style="text;strokeColor=none;fillColor=none;align=left;verticalAlign=top;spacingLeft=4;spacingRight=4;overflow=hidden;rotatable=0;points=[[0,0.5],[1,0.5]];portConstraint=eastwest;whiteSpace=wrap;html=1;fontSize=14;" parent="PoCXjNP7LagrxDgm13DA-18" vertex="1">
          <mxGeometry y="26" width="450" height="26" as="geometry" />
        </mxCell>
        <mxCell id="PoCXjNP7LagrxDgm13DA-20" value="+ Parameters(): Dictionary&amp;lt;ParameterType, Parameter&amp;gt;" style="text;strokeColor=none;fillColor=none;align=left;verticalAlign=top;spacingLeft=4;spacingRight=4;overflow=hidden;rotatable=0;points=[[0,0.5],[1,0.5]];portConstraint=eastwest;whiteSpace=wrap;html=1;fontSize=14;" parent="PoCXjNP7LagrxDgm13DA-18" vertex="1">
          <mxGeometry y="52" width="450" height="88" as="geometry" />
        </mxCell>
        <mxCell id="PoCXjNP7LagrxDgm13DA-24" style="edgeStyle=orthogonalEdgeStyle;rounded=0;orthogonalLoop=1;jettySize=auto;html=1;entryX=0.633;entryY=1;entryDx=0;entryDy=0;entryPerimeter=0;endArrow=diamondThin;endFill=1;endSize=20;strokeWidth=2;" parent="1" source="PoCXjNP7LagrxDgm13DA-1" target="PoCXjNP7LagrxDgm13DA-20" edge="1">
          <mxGeometry relative="1" as="geometry" />
        </mxCell>
        <mxCell id="PoCXjNP7LagrxDgm13DA-25" style="edgeStyle=orthogonalEdgeStyle;rounded=0;orthogonalLoop=1;jettySize=auto;html=1;entryX=1.005;entryY=-0.058;entryDx=0;entryDy=0;entryPerimeter=0;strokeWidth=2;endArrow=diamondThin;endFill=1;endSize=20;" parent="1" source="PoCXjNP7LagrxDgm13DA-5" target="PoCXjNP7LagrxDgm13DA-20" edge="1">
          <mxGeometry relative="1" as="geometry" />
        </mxCell>
        <mxCell id="PoCXjNP7LagrxDgm13DA-26" value="1..*" style="text;align=center;fontStyle=1;verticalAlign=middle;spacingLeft=3;spacingRight=3;strokeColor=none;rotatable=0;points=[[0,0.5],[1,0.5]];portConstraint=eastwest;html=1;fontSize=14;" parent="1" vertex="1">
          <mxGeometry x="920" y="410" width="80" height="26" as="geometry" />
        </mxCell>
        <mxCell id="PoCXjNP7LagrxDgm13DA-27" value="1" style="text;align=center;fontStyle=1;verticalAlign=middle;spacingLeft=3;spacingRight=3;strokeColor=none;rotatable=0;points=[[0,0.5],[1,0.5]];portConstraint=eastwest;html=1;fontSize=14;" parent="1" vertex="1">
          <mxGeometry x="413" width="80" height="26" as="geometry" />
        </mxCell>
        <mxCell id="PoCXjNP7LagrxDgm13DA-28" value="1..*" style="text;align=center;fontStyle=1;verticalAlign=middle;spacingLeft=3;spacingRight=3;strokeColor=none;rotatable=0;points=[[0,0.5],[1,0.5]];portConstraint=eastwest;html=1;fontSize=14;" parent="1" vertex="1">
          <mxGeometry x="680" y="200" width="80" height="26" as="geometry" />
        </mxCell>
        <mxCell id="PoCXjNP7LagrxDgm13DA-29" value="1" style="text;align=center;fontStyle=1;verticalAlign=middle;spacingLeft=3;spacingRight=3;strokeColor=none;rotatable=0;points=[[0,0.5],[1,0.5]];portConstraint=eastwest;html=1;fontSize=14;" parent="1" vertex="1">
          <mxGeometry x="340" y="100" width="80" height="26" as="geometry" />
        </mxCell>
        <mxCell id="3VKgxQNt9R2R6aNOcvrB-17" style="edgeStyle=orthogonalEdgeStyle;rounded=0;orthogonalLoop=1;jettySize=auto;html=1;entryX=0.5;entryY=0;entryDx=0;entryDy=0;strokeWidth=2;dashed=1;endArrow=open;endFill=0;" edge="1" parent="1" source="PoCXjNP7LagrxDgm13DA-30" target="3VKgxQNt9R2R6aNOcvrB-1">
          <mxGeometry relative="1" as="geometry" />
        </mxCell>
        <mxCell id="PoCXjNP7LagrxDgm13DA-30" value="Builder" style="swimlane;fontStyle=0;childLayout=stackLayout;horizontal=1;startSize=26;fillColor=none;horizontalStack=0;resizeParent=1;resizeParentMax=0;resizeLast=0;collapsible=1;marginBottom=0;whiteSpace=wrap;html=1;fontSize=14;" parent="1" vertex="1">
          <mxGeometry x="-335" y="-20" width="210" height="160" as="geometry" />
        </mxCell>
        <mxCell id="PoCXjNP7LagrxDgm13DA-31" value="- _wrapper: Wrapper" style="text;strokeColor=none;fillColor=none;align=left;verticalAlign=top;spacingLeft=4;spacingRight=4;overflow=hidden;rotatable=0;points=[[0,0.5],[1,0.5]];portConstraint=eastwest;whiteSpace=wrap;html=1;fontSize=14;" parent="PoCXjNP7LagrxDgm13DA-30" vertex="1">
          <mxGeometry y="26" width="210" height="26" as="geometry" />
        </mxCell>
        <mxCell id="PoCXjNP7LagrxDgm13DA-47" value="" style="html=1;whiteSpace=wrap;" parent="PoCXjNP7LagrxDgm13DA-30" vertex="1">
          <mxGeometry y="52" width="210" height="108" as="geometry" />
        </mxCell>
        <mxCell id="PoCXjNP7LagrxDgm13DA-34" style="edgeStyle=orthogonalEdgeStyle;rounded=0;orthogonalLoop=1;jettySize=auto;html=1;entryX=-0.003;entryY=0.894;entryDx=0;entryDy=0;entryPerimeter=0;dashed=1;strokeWidth=2;endArrow=open;endFill=0;endSize=15;" parent="1" edge="1">
          <mxGeometry relative="1" as="geometry">
            <mxPoint x="-120" y="40" as="sourcePoint" />
            <mxPoint x="10.000000000000234" y="39.65400000000014" as="targetPoint" />
          </mxGeometry>
        </mxCell>
        <mxCell id="PoCXjNP7LagrxDgm13DA-35" value="&amp;lt;&amp;lt;use&amp;gt;&amp;gt;" style="edgeLabel;html=1;align=center;verticalAlign=middle;resizable=0;points=[];fontSize=14;" parent="1" vertex="1" connectable="0">
          <mxGeometry x="-70" y="50.003999999999905" as="geometry" />
        </mxCell>
        <mxCell id="PoCXjNP7LagrxDgm13DA-40" style="edgeStyle=orthogonalEdgeStyle;rounded=0;orthogonalLoop=1;jettySize=auto;html=1;strokeWidth=2;endArrow=diamondThin;endFill=1;endSize=20;entryX=0.5;entryY=1;entryDx=0;entryDy=0;" parent="1" source="PoCXjNP7LagrxDgm13DA-30" target="PoCXjNP7LagrxDgm13DA-55" edge="1">
          <mxGeometry relative="1" as="geometry">
            <mxPoint x="-230" y="-180" as="targetPoint" />
          </mxGeometry>
        </mxCell>
        <mxCell id="PoCXjNP7LagrxDgm13DA-41" style="edgeStyle=orthogonalEdgeStyle;rounded=0;orthogonalLoop=1;jettySize=auto;html=1;entryX=0.994;entryY=0.098;entryDx=0;entryDy=0;entryPerimeter=0;strokeWidth=2;endArrow=diamondThin;endFill=1;endSize=20;" parent="1" source="PoCXjNP7LagrxDgm13DA-18" target="PoCXjNP7LagrxDgm13DA-57" edge="1">
          <mxGeometry relative="1" as="geometry">
            <mxPoint x="-95.80000000000018" y="-200.85600000000022" as="targetPoint" />
          </mxGeometry>
        </mxCell>
        <mxCell id="PoCXjNP7LagrxDgm13DA-42" value="&amp;lt;&amp;lt;interface&amp;gt;&amp;gt;&lt;br&gt;IWrapper" style="swimlane;fontStyle=0;childLayout=stackLayout;horizontal=1;startSize=40;fillColor=none;horizontalStack=0;resizeParent=1;resizeParentMax=0;resizeLast=0;collapsible=1;marginBottom=0;whiteSpace=wrap;html=1;fontSize=14;" parent="1" vertex="1">
          <mxGeometry x="-370" y="750" width="300" height="172" as="geometry" />
        </mxCell>
        <mxCell id="PoCXjNP7LagrxDgm13DA-43" value="+ OpenCAD()" style="text;strokeColor=none;fillColor=none;align=left;verticalAlign=top;spacingLeft=4;spacingRight=4;overflow=hidden;rotatable=0;points=[[0,0.5],[1,0.5]];portConstraint=eastwest;whiteSpace=wrap;html=1;fontSize=14;" parent="PoCXjNP7LagrxDgm13DA-42" vertex="1">
          <mxGeometry y="40" width="300" height="26" as="geometry" />
        </mxCell>
        <mxCell id="PoCXjNP7LagrxDgm13DA-44" value="+ CreateSketch()" style="text;strokeColor=none;fillColor=none;align=left;verticalAlign=top;spacingLeft=4;spacingRight=4;overflow=hidden;rotatable=0;points=[[0,0.5],[1,0.5]];portConstraint=eastwest;whiteSpace=wrap;html=1;fontSize=14;" parent="PoCXjNP7LagrxDgm13DA-42" vertex="1">
          <mxGeometry y="66" width="300" height="24" as="geometry" />
        </mxCell>
        <mxCell id="PoCXjNP7LagrxDgm13DA-45" value="+ CreateRectangle(Point, Point)&lt;div&gt;&lt;br&gt;&lt;/div&gt;&lt;div&gt;+ Extrude(Sketch)&lt;/div&gt;" style="text;strokeColor=none;fillColor=none;align=left;verticalAlign=top;spacingLeft=4;spacingRight=4;overflow=hidden;rotatable=0;points=[[0,0.5],[1,0.5]];portConstraint=eastwest;whiteSpace=wrap;html=1;fontSize=14;" parent="PoCXjNP7LagrxDgm13DA-42" vertex="1">
          <mxGeometry y="90" width="300" height="82" as="geometry" />
        </mxCell>
        <mxCell id="PoCXjNP7LagrxDgm13DA-48" value="+ Build(Parameters): void&lt;div&gt;&lt;br&gt;&lt;/div&gt;&lt;div&gt;- BuildTop(): void&lt;/div&gt;&lt;div&gt;&lt;br&gt;&lt;/div&gt;&lt;div&gt;- BuildLegs(): void&lt;/div&gt;" style="text;strokeColor=none;fillColor=none;align=left;verticalAlign=top;spacingLeft=4;spacingRight=4;overflow=hidden;rotatable=0;points=[[0,0.5],[1,0.5]];portConstraint=eastwest;whiteSpace=wrap;html=1;fontSize=14;" parent="1" vertex="1">
          <mxGeometry x="-330" y="36" width="200" height="104" as="geometry" />
        </mxCell>
        <mxCell id="PoCXjNP7LagrxDgm13DA-55" value="MainForm" style="swimlane;fontStyle=0;childLayout=stackLayout;horizontal=1;startSize=26;fillColor=none;horizontalStack=0;resizeParent=1;resizeParentMax=0;resizeLast=0;collapsible=1;marginBottom=0;whiteSpace=wrap;html=1;fontSize=14;" parent="1" vertex="1">
          <mxGeometry x="-330" y="-290" width="200" height="120" as="geometry" />
        </mxCell>
        <mxCell id="PoCXjNP7LagrxDgm13DA-56" value="- _builder: Builder" style="text;strokeColor=none;fillColor=none;align=left;verticalAlign=top;spacingLeft=4;spacingRight=4;overflow=hidden;rotatable=0;points=[[0,0.5],[1,0.5]];portConstraint=eastwest;whiteSpace=wrap;html=1;fontSize=14;" parent="PoCXjNP7LagrxDgm13DA-55" vertex="1">
          <mxGeometry y="26" width="200" height="26" as="geometry" />
        </mxCell>
        <mxCell id="PoCXjNP7LagrxDgm13DA-57" value="- _parameters: Parameters" style="text;strokeColor=none;fillColor=none;align=left;verticalAlign=top;spacingLeft=4;spacingRight=4;overflow=hidden;rotatable=0;points=[[0,0.5],[1,0.5]];portConstraint=eastwest;whiteSpace=wrap;html=1;fontSize=14;" parent="PoCXjNP7LagrxDgm13DA-55" vertex="1">
          <mxGeometry y="52" width="200" height="38" as="geometry" />
        </mxCell>
        <mxCell id="PoCXjNP7LagrxDgm13DA-58" value="&amp;nbsp;+ BuildModel(): void" style="html=1;whiteSpace=wrap;align=left;fontSize=14;" parent="PoCXjNP7LagrxDgm13DA-55" vertex="1">
          <mxGeometry y="90" width="200" height="30" as="geometry" />
        </mxCell>
        <mxCell id="PoCXjNP7LagrxDgm13DA-60" value="1" style="text;align=center;fontStyle=1;verticalAlign=middle;spacingLeft=3;spacingRight=3;strokeColor=none;rotatable=0;points=[[0,0.5],[1,0.5]];portConstraint=eastwest;html=1;fontSize=14;" parent="1" vertex="1">
          <mxGeometry x="-150" y="-270" width="80" height="26" as="geometry" />
        </mxCell>
        <mxCell id="PoCXjNP7LagrxDgm13DA-61" value="1" style="text;align=center;fontStyle=1;verticalAlign=middle;spacingLeft=3;spacingRight=3;strokeColor=none;rotatable=0;points=[[0,0.5],[1,0.5]];portConstraint=eastwest;html=1;fontSize=14;" parent="1" vertex="1">
          <mxGeometry x="200" y="-46" width="80" height="26" as="geometry" />
        </mxCell>
        <mxCell id="PoCXjNP7LagrxDgm13DA-64" value="1" style="text;align=center;fontStyle=1;verticalAlign=middle;spacingLeft=3;spacingRight=3;strokeColor=none;rotatable=0;points=[[0,0.5],[1,0.5]];portConstraint=eastwest;html=1;fontSize=14;" parent="1" vertex="1">
          <mxGeometry x="-250" y="-50" width="80" height="26" as="geometry" />
        </mxCell>
        <mxCell id="PoCXjNP7LagrxDgm13DA-65" value="1" style="text;align=center;fontStyle=1;verticalAlign=middle;spacingLeft=3;spacingRight=3;strokeColor=none;rotatable=0;points=[[0,0.5],[1,0.5]];portConstraint=eastwest;html=1;fontSize=14;" parent="1" vertex="1">
          <mxGeometry x="-250" y="-160" width="80" height="26" as="geometry" />
        </mxCell>
        <mxCell id="ReBuMeNeadvC9PKwHi04-1" value="&lt;div&gt;&lt;br&gt;&lt;/div&gt;+ Validate(ParameterType, Parameter): bool" style="text;strokeColor=none;fillColor=none;align=left;verticalAlign=top;spacingLeft=4;spacingRight=4;overflow=hidden;rotatable=0;points=[[0,0.5],[1,0.5]];portConstraint=eastwest;whiteSpace=wrap;html=1;fontSize=14;" parent="1" vertex="1">
          <mxGeometry x="10" y="61" width="290" height="54" as="geometry" />
        </mxCell>
        <mxCell id="ReBuMeNeadvC9PKwHi04-2" value="KompasWrapper" style="swimlane;fontStyle=0;childLayout=stackLayout;horizontal=1;startSize=40;fillColor=none;horizontalStack=0;resizeParent=1;resizeParentMax=0;resizeLast=0;collapsible=1;marginBottom=0;whiteSpace=wrap;html=1;fontSize=14;" parent="1" vertex="1">
          <mxGeometry x="-610" y="499" width="300" height="172" as="geometry" />
        </mxCell>
        <mxCell id="ReBuMeNeadvC9PKwHi04-3" value="+ OpenCAD()" style="text;strokeColor=none;fillColor=none;align=left;verticalAlign=top;spacingLeft=4;spacingRight=4;overflow=hidden;rotatable=0;points=[[0,0.5],[1,0.5]];portConstraint=eastwest;whiteSpace=wrap;html=1;fontSize=14;" parent="ReBuMeNeadvC9PKwHi04-2" vertex="1">
          <mxGeometry y="40" width="300" height="26" as="geometry" />
        </mxCell>
        <mxCell id="ReBuMeNeadvC9PKwHi04-4" value="+ CreateSketch()" style="text;strokeColor=none;fillColor=none;align=left;verticalAlign=top;spacingLeft=4;spacingRight=4;overflow=hidden;rotatable=0;points=[[0,0.5],[1,0.5]];portConstraint=eastwest;whiteSpace=wrap;html=1;fontSize=14;" parent="ReBuMeNeadvC9PKwHi04-2" vertex="1">
          <mxGeometry y="66" width="300" height="24" as="geometry" />
        </mxCell>
        <mxCell id="ReBuMeNeadvC9PKwHi04-5" value="+ CreateRectangle(Point, Point)&lt;div&gt;&lt;br&gt;&lt;/div&gt;&lt;div&gt;+ Extrude(Sketch)&lt;/div&gt;" style="text;strokeColor=none;fillColor=none;align=left;verticalAlign=top;spacingLeft=4;spacingRight=4;overflow=hidden;rotatable=0;points=[[0,0.5],[1,0.5]];portConstraint=eastwest;whiteSpace=wrap;html=1;fontSize=14;" parent="ReBuMeNeadvC9PKwHi04-2" vertex="1">
          <mxGeometry y="90" width="300" height="82" as="geometry" />
        </mxCell>
        <mxCell id="ReBuMeNeadvC9PKwHi04-6" value="InventorWrapper" style="swimlane;fontStyle=0;childLayout=stackLayout;horizontal=1;startSize=40;fillColor=none;horizontalStack=0;resizeParent=1;resizeParentMax=0;resizeLast=0;collapsible=1;marginBottom=0;whiteSpace=wrap;html=1;fontSize=14;" parent="1" vertex="1">
          <mxGeometry x="-150" y="499" width="300" height="172" as="geometry" />
        </mxCell>
        <mxCell id="ReBuMeNeadvC9PKwHi04-7" value="+ OpenCAD()" style="text;strokeColor=none;fillColor=none;align=left;verticalAlign=top;spacingLeft=4;spacingRight=4;overflow=hidden;rotatable=0;points=[[0,0.5],[1,0.5]];portConstraint=eastwest;whiteSpace=wrap;html=1;fontSize=14;" parent="ReBuMeNeadvC9PKwHi04-6" vertex="1">
          <mxGeometry y="40" width="300" height="26" as="geometry" />
        </mxCell>
        <mxCell id="ReBuMeNeadvC9PKwHi04-8" value="+ CreateSketch()" style="text;strokeColor=none;fillColor=none;align=left;verticalAlign=top;spacingLeft=4;spacingRight=4;overflow=hidden;rotatable=0;points=[[0,0.5],[1,0.5]];portConstraint=eastwest;whiteSpace=wrap;html=1;fontSize=14;" parent="ReBuMeNeadvC9PKwHi04-6" vertex="1">
          <mxGeometry y="66" width="300" height="24" as="geometry" />
        </mxCell>
        <mxCell id="ReBuMeNeadvC9PKwHi04-9" value="+ CreateRectangle(Point, Point)&lt;div&gt;&lt;br&gt;&lt;/div&gt;&lt;div&gt;+ Extrude(Sketch)&lt;/div&gt;" style="text;strokeColor=none;fillColor=none;align=left;verticalAlign=top;spacingLeft=4;spacingRight=4;overflow=hidden;rotatable=0;points=[[0,0.5],[1,0.5]];portConstraint=eastwest;whiteSpace=wrap;html=1;fontSize=14;" parent="ReBuMeNeadvC9PKwHi04-6" vertex="1">
          <mxGeometry y="90" width="300" height="82" as="geometry" />
        </mxCell>
        <mxCell id="ReBuMeNeadvC9PKwHi04-10" style="edgeStyle=orthogonalEdgeStyle;rounded=0;orthogonalLoop=1;jettySize=auto;html=1;entryX=-0.014;entryY=0.118;entryDx=0;entryDy=0;entryPerimeter=0;strokeWidth=2;endArrow=block;endFill=0;endSize=15;dashed=1;" parent="1" source="ReBuMeNeadvC9PKwHi04-2" target="PoCXjNP7LagrxDgm13DA-45" edge="1">
          <mxGeometry relative="1" as="geometry" />
        </mxCell>
        <mxCell id="ReBuMeNeadvC9PKwHi04-11" style="edgeStyle=orthogonalEdgeStyle;rounded=0;orthogonalLoop=1;jettySize=auto;html=1;entryX=1.003;entryY=0.092;entryDx=0;entryDy=0;entryPerimeter=0;dashed=1;strokeWidth=2;endArrow=block;endFill=0;endSize=15;" parent="1" source="ReBuMeNeadvC9PKwHi04-6" target="PoCXjNP7LagrxDgm13DA-45" edge="1">
          <mxGeometry relative="1" as="geometry" />
        </mxCell>
        <mxCell id="3VKgxQNt9R2R6aNOcvrB-13" style="edgeStyle=orthogonalEdgeStyle;rounded=0;orthogonalLoop=1;jettySize=auto;html=1;entryX=0.5;entryY=0;entryDx=0;entryDy=0;strokeWidth=2;dashed=1;" edge="1" parent="1" source="3VKgxQNt9R2R6aNOcvrB-1" target="ReBuMeNeadvC9PKwHi04-6">
          <mxGeometry relative="1" as="geometry" />
        </mxCell>
        <mxCell id="3VKgxQNt9R2R6aNOcvrB-15" style="edgeStyle=orthogonalEdgeStyle;rounded=0;orthogonalLoop=1;jettySize=auto;html=1;entryX=0.5;entryY=0;entryDx=0;entryDy=0;strokeWidth=2;dashed=1;endArrow=open;endFill=0;" edge="1" parent="1" source="3VKgxQNt9R2R6aNOcvrB-1" target="ReBuMeNeadvC9PKwHi04-2">
          <mxGeometry relative="1" as="geometry" />
        </mxCell>
        <mxCell id="3VKgxQNt9R2R6aNOcvrB-1" value="WrapperFactory" style="swimlane;fontStyle=0;childLayout=stackLayout;horizontal=1;startSize=26;fillColor=none;horizontalStack=0;resizeParent=1;resizeParentMax=0;resizeLast=0;collapsible=1;marginBottom=0;whiteSpace=wrap;html=1;" vertex="1" parent="1">
          <mxGeometry x="-325" y="282" width="190" height="60" as="geometry" />
        </mxCell>
        <mxCell id="3VKgxQNt9R2R6aNOcvrB-3" value="+ MakeWrapper(Cad): IWrapper" style="text;strokeColor=none;fillColor=none;align=left;verticalAlign=top;spacingLeft=4;spacingRight=4;overflow=hidden;rotatable=0;points=[[0,0.5],[1,0.5]];portConstraint=eastwest;whiteSpace=wrap;html=1;" vertex="1" parent="3VKgxQNt9R2R6aNOcvrB-1">
          <mxGeometry y="26" width="190" height="34" as="geometry" />
        </mxCell>
        <mxCell id="3VKgxQNt9R2R6aNOcvrB-5" value="Cad" style="swimlane;fontStyle=0;childLayout=stackLayout;horizontal=1;startSize=26;fillColor=none;horizontalStack=0;resizeParent=1;resizeParentMax=0;resizeLast=0;collapsible=1;marginBottom=0;whiteSpace=wrap;html=1;" vertex="1" parent="1">
          <mxGeometry x="-630" y="264" width="140" height="78" as="geometry" />
        </mxCell>
        <mxCell id="3VKgxQNt9R2R6aNOcvrB-6" value="Kompas," style="text;strokeColor=none;fillColor=none;align=left;verticalAlign=top;spacingLeft=4;spacingRight=4;overflow=hidden;rotatable=0;points=[[0,0.5],[1,0.5]];portConstraint=eastwest;whiteSpace=wrap;html=1;" vertex="1" parent="3VKgxQNt9R2R6aNOcvrB-5">
          <mxGeometry y="26" width="140" height="26" as="geometry" />
        </mxCell>
        <mxCell id="3VKgxQNt9R2R6aNOcvrB-7" value="Inventor" style="text;strokeColor=none;fillColor=none;align=left;verticalAlign=top;spacingLeft=4;spacingRight=4;overflow=hidden;rotatable=0;points=[[0,0.5],[1,0.5]];portConstraint=eastwest;whiteSpace=wrap;html=1;" vertex="1" parent="3VKgxQNt9R2R6aNOcvrB-5">
          <mxGeometry y="52" width="140" height="26" as="geometry" />
        </mxCell>
        <mxCell id="3VKgxQNt9R2R6aNOcvrB-9" style="edgeStyle=orthogonalEdgeStyle;rounded=0;orthogonalLoop=1;jettySize=auto;html=1;entryX=-0.02;entryY=0.365;entryDx=0;entryDy=0;entryPerimeter=0;dashed=1;strokeWidth=2;endArrow=open;endFill=0;" edge="1" parent="1" source="3VKgxQNt9R2R6aNOcvrB-5" target="PoCXjNP7LagrxDgm13DA-48">
          <mxGeometry relative="1" as="geometry" />
        </mxCell>
        <mxCell id="3VKgxQNt9R2R6aNOcvrB-10" value="&amp;lt;&amp;lt;use&amp;gt;&amp;gt;" style="edgeLabel;html=1;align=center;verticalAlign=middle;resizable=0;points=[];fontSize=14;" vertex="1" connectable="0" parent="1">
          <mxGeometry x="-490" y="60.003999999999905" as="geometry" />
        </mxCell>
        <mxCell id="3VKgxQNt9R2R6aNOcvrB-11" style="edgeStyle=orthogonalEdgeStyle;rounded=0;orthogonalLoop=1;jettySize=auto;html=1;entryX=0;entryY=0.5;entryDx=0;entryDy=0;strokeWidth=2;dashed=1;endArrow=open;endFill=0;" edge="1" parent="1" source="3VKgxQNt9R2R6aNOcvrB-6" target="3VKgxQNt9R2R6aNOcvrB-3">
          <mxGeometry relative="1" as="geometry" />
        </mxCell>
        <mxCell id="3VKgxQNt9R2R6aNOcvrB-12" value="&amp;lt;&amp;lt;use&amp;gt;&amp;gt;" style="edgeLabel;html=1;align=center;verticalAlign=middle;resizable=0;points=[];fontSize=14;" vertex="1" connectable="0" parent="1">
          <mxGeometry x="-50" y="70.0039999999999" as="geometry">
            <mxPoint x="-370" y="212" as="offset" />
          </mxGeometry>
        </mxCell>
        <mxCell id="3VKgxQNt9R2R6aNOcvrB-14" value="&amp;lt;&amp;lt;use&amp;gt;&amp;gt;" style="edgeLabel;html=1;align=center;verticalAlign=middle;resizable=0;points=[];fontSize=14;" vertex="1" connectable="0" parent="1">
          <mxGeometry x="-90" y="410.0039999999999" as="geometry" />
        </mxCell>
        <mxCell id="3VKgxQNt9R2R6aNOcvrB-16" value="&amp;lt;&amp;lt;use&amp;gt;&amp;gt;" style="edgeLabel;html=1;align=center;verticalAlign=middle;resizable=0;points=[];fontSize=14;" vertex="1" connectable="0" parent="1">
          <mxGeometry x="-350" y="410.0039999999999" as="geometry" />
        </mxCell>
        <mxCell id="3VKgxQNt9R2R6aNOcvrB-18" value="&amp;lt;&amp;lt;use&amp;gt;&amp;gt;" style="edgeLabel;html=1;align=center;verticalAlign=middle;resizable=0;points=[];fontSize=14;" vertex="1" connectable="0" parent="1">
          <mxGeometry x="-200" y="213.0039999999999" as="geometry" />
        </mxCell>
      </root>
    </mxGraphModel>
  </diagram>
</mxfile>
